<svg version="1" xmlns="http://www.w3.org/2000/svg" width="682.667" height="682.667" viewBox="0 0 512.000000 512.000000"><path d="M235.9.4c-.2.3-3.2.7-6.7 1.1-3.5.3-11.1 1.5-17 2.6s-12 2.2-13.5 2.4c-6.2 1-25.8 7.2-35.2 11-1.1.5-2.2.9-2.5 1-3.8 1.3-22.8 10.1-25 11.5-.8.5-3.7 2.2-6.5 3.6-2.7 1.5-5.2 2.9-5.5 3.3-.3.3-1.4 1.1-2.5 1.8-10.2 6.1-15.5 9.7-15.5 10.4 0 .5-.4.9-1 .9-1.1 0-2 .7-15.4 12.1C78.6 71.5 67.3 82.9 59 93c-2.9 3.6-5.8 6.8-6.4 7.2-.6.4-.7.8-.3.8.5 0 .1.8-.9 1.7C49.1 105 36 124.9 36 126.1c0 .5-.4.9-.9.9s-1.3.9-1.6 2.1c-.4 1.2-3.1 6.6-6 12s-5.1 9.9-4.9 9.9c.2 0-.7 2.2-2.1 5-1.4 2.7-2.6 5.3-2.6 5.7-.2 1.3-1 3.6-2.4 6.8-1.2 2.8-2.7 7-3.1 8.7-.1.5-.2.9-.4 1-.1.2-.4 1.6-.6 3.3-.3 1.6-1.1 3.3-1.7 3.7-.7.4-.9.8-.5.8s.1 2.1-.7 4.7c-1.4 4.7-2.3 8.9-2.9 12.8-.2 1.1-.4 2-.6 2-.1 0-.3 1.1-.4 2.5-.2 1.4-.8 5.4-1.4 9C.8 230.8.5 236.3.5 260.1c0 18.1.3 25 1.2 26.1.7.8 1 1.7.7 2.1-.3.3.1 4.3 1 8.9.8 4.5 1.7 9.6 2 11.3 1 6 1.7 9.1 3.8 16 1.1 3.8 2.1 7.4 2.2 8 .1.5.4 1.4.7 2 .4.5.9 2.2 1.3 3.7.3 1.5 1.1 4 1.8 5.5.6 1.5 1.2 3.1 1.3 3.5.2.5.3.9.5 1 .1.2.3 1 .5 2 .6 3.1 16.3 34.3 19.9 39.5 2 2.9 3.6 5.5 3.6 5.9 0 .3 1.3 2.3 3 4.4 1.7 2.1 3 4.1 3 4.6 0 .4.7 1.4 1.5 2.3.8.9 5.5 6.5 10.4 12.6 10.6 13.1 26.2 28.4 38.6 38 5 3.8 9.2 7.3 9.3 7.7.2.5 1 .8 1.8.8s1.4.4 1.4.8c0 .5 2.2 2.1 5 3.6 2.7 1.5 5.6 3.2 6.3 3.9 3.2 3 31.8 17.4 40.9 20.7 2.9 1 7.3 2.6 9.8 3.6 9.1 3.3 27.7 8.4 28.4 7.6.4-.3.6-.1.6.4s1 1 2.3 1c1.2.1 7.6 1.1 14.2 2.3 11 1.9 14.5 2.1 41 1.7 35.1-.5 30.8-.3 43-2.7 5.5-1.1 10.9-2.2 12-2.3 1.1-.1 2.6-.5 3.3-.9.6-.5 1.2-.6 1.2-.4 0 .7 19.7-5.4 30-9.2 10.3-3.8 39-18 39-19.2 0-.5.4-.9 1-.9 1 0 14.2-7.8 15-8.9.3-.4 3.6-2.9 7.3-5.6 3.8-2.6 7.1-5.4 7.4-6.1.3-.8.8-1.2 1.2-.9.4.2 4-2.7 8-6.5 4-3.9 7.5-7 7.8-7 .6 0 7.3-6.9 7.3-7.6 0-.2 2.7-3.1 5.9-6.5 3.3-3.4 8.6-9.7 11.8-14.1 3.2-4.4 6.8-9.2 8-10.7 1.3-1.4 2.3-3.2 2.3-3.9 0-.6.5-1.2 1.1-1.2.5 0 .7-.5.4-1-.3-.6-.2-1 .2-1 .5 0 1.7-1.6 2.7-3.5 1.1-1.9 2.4-3.5 2.9-3.5.6 0 .7-.3.4-.6-.4-.4.2-1.9 1.2-3.3 4.3-6 19.4-39.7 20.6-45.9.2-.9.4-1.8.5-2 .2-.1.3-.5.4-1 .1-.4.9-3 1.9-5.7.9-2.8 1.8-5.9 2-7 .1-1.1.6-2.6 1-3.3.5-.6.5-1.7.2-2.2-.3-.6-.1-1 .5-1s.8-.5.5-1c-.3-.6-.3-1.5.1-2.2.4-.7.9-2.4 1-3.8.2-1.4 1.1-6.3 2.1-11 1.5-7.2 1.8-13.6 1.8-41.5 0-30-.2-34-2.2-44-1.2-6.1-2.4-12.1-2.7-13.5-.3-1.4-1.5-5.9-2.6-10-1.2-4.1-2.3-8.2-2.5-9-.2-.8-.4-1.7-.5-2-.1-.3-.2-.8-.1-1.3 0-.4-.3-.7-.7-.7-.5 0-.9-.6-.9-1.4 0-4.3-13.9-35.1-21.4-47.4-2.3-3.7-5.7-9.3-7.6-12.5-1.9-3.1-3.8-5.7-4.3-5.7-.6 0-1-.7-1-1.5s-.4-1.5-.8-1.5-1.6-1.5-2.7-3.3c-1-1.7-2.1-3.4-2.4-3.7-.3-.3-2.8-3.2-5.5-6.5-7.9-9.6-29.6-30.7-38.2-37.1-4.4-3.3-8.4-6.6-9.1-7.4-.7-.8-1.3-1.1-1.3-.5 0 .6-.3.6-.8 0-.4-.6-3.4-2.8-6.7-5-3.3-2.1-6.1-4.2-6.3-4.7-.2-.4-.8-.8-1.2-.8-.5 0-3.7-1.7-7.2-3.7-3.5-2.1-6.5-3.8-6.8-3.9-.3 0-5-2.2-10.5-4.8-14.2-6.7-16.2-7.6-17.1-7.6-.5 0-3.1-.9-5.9-1.9-6.2-2.4-8.7-3.3-10-3.6-.5-.2-4.1-1.2-8-2.3-3.8-1.1-8.3-2.3-10-2.6-5.5-1.2-7.5-1.6-9.7-2-12-1.8-17.4-3-18-4-.5-.7-.8-.6-.8.4 0 1.2-.2 1.3-.9.1-.7-1.1-1.5-1.1-4-.3-1.9.7-3.1.7-3.1.1 0-.9-41.2-1.4-42.1-.5z"/></svg>