<?xml version="1.0" encoding="utf-8"?>
<!-- Generator: Adobe Illustrator 23.0.1, SVG Export Plug-In . SVG Version: 6.00 Build 0)  -->
<svg version="1.1" id="Layer_1" xmlns="http://www.w3.org/2000/svg" xmlns:xlink="http://www.w3.org/1999/xlink" x="0px" y="0px"
	 viewBox="0 0 521.2 170.7" style="enable-background:new 0 0 521.2 170.7;" xml:space="preserve">
<style type="text/css">
	.st0{fill:#FFFFFF;}
</style>
<g>
	<path d="M521.7,147.6c0,12.7-10.3,23.1-23.1,23.1H23.1C10.3,170.7,0,160.3,0,147.6V23.1C0,10.3,10.3,0,23.1,0h475.6
		c12.7,0,23.1,10.3,23.1,23.1V147.6z"/>
	<g>
		<path class="st0" d="M136,112.8c-2.8,6.1-4.1,8.9-7.6,14.3c-5,7.6-12,17-20.6,17c-7.7,0.1-9.7-5-20.1-5c-10.4,0.1-12.6,5-20.3,5
			C58.7,144,52,135.6,47.1,128c-13.9-21.1-15.3-45.9-6.8-59.1C46.4,59.5,56,54.1,65,54.1c9.2,0,15,5,22.6,5c7.4,0,11.9-5,22.5-5
			c8,0,16.5,4.4,22.6,11.9C112.8,76.9,116,105.2,136,112.8z"/>
		<g>
			<path class="st0" d="M102,45.6c3.9-5,6.8-11.9,5.7-19.1c-6.3,0.4-13.7,4.4-18,9.7c-3.9,4.7-7.1,11.8-5.9,18.6
				C90.7,55,97.8,50.9,102,45.6z"/>
		</g>
	</g>
	<g>
		<g>
			<path class="st0" d="M178.3,68.6l-19.9,58.5h9.1l5.9-18h19.2l6.1,18h9.4l-20-58.5H178.3z M183,78.2c0.7,2.6,1.4,5.3,2.3,8.3
				l5.4,15.5h-15.2l5.3-15.6C181.6,83.8,182.3,81.1,183,78.2z"/>
			<path class="st0" d="M233.9,83.8c-6,0-10.9,2.3-14.1,6.8l-0.4-5.8h-8.1l0,0.7c0.2,3.6,0.3,7.6,0.3,13.3v45.1h8.9v-21
				c2.7,3.3,7.1,5.2,12.1,5.2c5.2,0,9.9-2,13.4-5.7c3.9-4.1,5.9-10,5.9-17c0-6.2-1.8-11.6-5.1-15.5C243.6,85.9,239,83.8,233.9,83.8z
				 M231.7,91.1c7.9,0,11.4,7.3,11.4,14.6c0,9.3-4.5,15.1-11.8,15.1c-5,0-9.2-3.4-10.4-8.2c-0.2-0.8-0.3-1.7-0.3-2.9v-7.1
				c0-0.6,0.1-1.4,0.3-2.2c0-0.2,0.1-0.5,0.1-0.7C222.3,94.6,226.7,91.1,231.7,91.1z"/>
			<path class="st0" d="M279.5,83.8c-6,0-10.9,2.3-14.1,6.8l-0.4-5.8H257l0,0.7c0.2,3.6,0.3,7.6,0.3,13.3v45.1h8.9v-21
				c2.7,3.3,7.1,5.2,12.1,5.2c5.2,0,9.9-2,13.4-5.7c3.9-4.1,5.9-10,5.9-17c0-6.2-1.8-11.6-5.1-15.5
				C289.2,85.9,284.6,83.8,279.5,83.8z M277.3,91.1c7.9,0,11.4,7.3,11.4,14.6c0,9.3-4.5,15.1-11.8,15.1c-4.9,0-9.2-3.4-10.4-8.2
				c-0.2-0.8-0.3-1.7-0.3-2.9v-7.1c0-0.6,0.1-1.4,0.3-2.2c0-0.2,0.1-0.5,0.1-0.7C267.9,94.6,272.3,91.1,277.3,91.1z"/>
			<path class="st0" d="M336.6,93.4c-8.3-3.2-10.9-5.7-10.9-10.4c0-3.9,3.1-7.9,10.1-7.9c5.7,0,9.4,2,10.4,2.6l0.8,0.5l2.5-7.4
				l-0.5-0.3c-1.5-0.9-5.7-2.9-12.9-2.9c-11.3,0-19.2,6.7-19.2,16.2c0,7.7,4.9,13.1,15.5,16.9c7.5,2.8,10.3,5.7,10.3,10.6
				c0,5.6-4.3,9-11.3,9c-4.5,0-9.2-1.3-12.8-3.6l-0.8-0.5l-2.4,7.6l0.4,0.3c3.3,2.2,9.6,3.8,15,3.8c15.2,0,20.6-9.3,20.6-17.2
				C351.5,102.6,347.2,97.6,336.6,93.4z"/>
			<path class="st0" d="M367.4,74.6l-8.7,2.7v7.4h-6.4v7.1h6.4v21.7c0,5.2,1,8.9,3.1,11.2c2,2.2,5,3.4,8.6,3.4
				c3.3,0,5.7-0.7,6.8-1.1l0.5-0.2l-0.4-7.1l-0.8,0.3c-1.1,0.3-2.3,0.5-4.1,0.5c-3.4,0-4.9-2.2-4.9-7.3V91.8h10.7v-7.1h-10.7V74.6z"
				/>
			<path class="st0" d="M400.1,83.8c-12.4,0-21,9.2-21,22.5c0,12.8,8.4,21.8,20.4,21.8h0.1c10.1,0,21-7.1,21-22.6
				c0-6.3-1.9-11.7-5.6-15.7C411.1,85.9,406,83.8,400.1,83.8z M399.8,90.7c8,0,11.6,7.8,11.6,15c0,8.9-4.9,15.3-11.8,15.3h-0.1
				c-6.7,0-11.6-6.3-11.6-15.1C388,98.4,391.6,90.7,399.8,90.7z"/>
			<path class="st0" d="M447.6,84.2l-0.5-0.1c-0.8-0.2-1.4-0.3-2.2-0.3c-4.6,0-8.8,2.7-11.1,7.1l-0.3-6.2h-7.9l0.1,0.7
				c0.2,3.5,0.3,7.4,0.3,12.7l-0.1,28.9h8.9v-22.6c0-1.2,0.1-2.4,0.2-3.4c1-5.4,4.7-8.9,9.3-8.9c0.9,0,1.6,0.1,2.4,0.1l0.9,0.1V84.2
				z"/>
			<path class="st0" d="M467.5,83.7c-11.8,0-20,9.4-20,22.9c0,13,8.2,21.4,20.9,21.4c6.7,0,11.3-1.5,14-2.7l0.5-0.2l-1.7-6.6
				l-0.7,0.3c-2.4,1-5.6,2-11.1,2c-3.8,0-12.7-1.3-13.3-12.8l28.6,0.1l0.1-0.6c0.2-0.9,0.3-2.1,0.3-3.7
				C485.1,94.5,480.5,83.7,467.5,83.7z M466.9,90.4c2.7,0,4.9,0.8,6.5,2.5c2.5,2.6,3,6.4,3,8.2h-20.2
				C457.1,96,460.3,90.4,466.9,90.4z"/>
		</g>
		<g>
			<path class="st0" d="M158.4,28.6c2.5-0.3,5.3-0.6,8.5-0.6c5.7,0,9.8,1.2,12.5,3.4c2.8,2.3,4.4,5.5,4.4,10c0,4.5-1.6,8.2-4.4,10.8
				c-2.9,2.6-7.7,4-13.6,4c-2.9,0-5.2-0.1-7.3-0.3V28.6z M162.5,53.2c1,0.2,2.5,0.2,4,0.2c8.5,0,13.1-4.3,13.1-11.7
				c0-6.6-4.1-10.7-12.5-10.7c-2.1,0-3.6,0.2-4.7,0.4V53.2z"/>
			<path class="st0" d="M198,56.4c-5.9,0-10.6-3.9-10.6-10.2c0-6.7,4.9-10.6,11-10.6c6.3,0,10.6,4.1,10.6,10.2
				C209,53.2,203.3,56.4,198,56.4L198,56.4z M198.1,53.7c3.8,0,6.7-3.2,6.7-7.8c0-3.4-1.9-7.6-6.6-7.6c-4.7,0-6.8,3.9-6.8,7.7
				C191.5,50.4,194.2,53.7,198.1,53.7L198.1,53.7z"/>
			<path class="st0" d="M215.4,36.1l3,10.1c0.6,2.2,1.2,4.3,1.6,6.4h0.1c0.5-2,1.2-4.1,2-6.3l3.6-10.1h3.4l3.4,9.9
				c0.8,2.3,1.5,4.5,2,6.5h0.1c0.4-2,1-4.1,1.7-6.5l3.1-10h4l-7.1,19.9h-3.7l-3.4-9.5c-0.8-2.3-1.4-4.2-2-6.6h-0.1
				c-0.5,2.4-1.2,4.5-2,6.6l-3.6,9.4h-3.7l-6.7-19.9H215.4z"/>
			<path class="st0" d="M247.4,41.4c0-2.1,0-3.7-0.2-5.4h3.6l0.2,3.2h0.1c1.1-1.8,3.7-3.7,7.3-3.7c3.1,0,7.8,1.6,7.8,8.5v11.9h-4
				V44.5c0-3.2-1.3-5.9-5.1-5.9c-2.6,0-4.7,1.7-5.4,3.7c-0.2,0.5-0.3,1.1-0.3,1.7v12h-4V41.4z"/>
			<path class="st0" d="M272.7,26.8h4v29.2h-4V26.8z"/>
			<path class="st0" d="M292.4,56.4c-5.9,0-10.6-3.9-10.6-10.2c0-6.7,4.9-10.6,11-10.6c6.3,0,10.6,4.1,10.6,10.2
				C303.4,53.2,297.7,56.4,292.4,56.4L292.4,56.4z M292.5,53.7c3.8,0,6.7-3.2,6.7-7.8c0-3.4-1.9-7.6-6.6-7.6c-4.7,0-6.8,3.9-6.8,7.7
				C285.9,50.4,288.6,53.7,292.5,53.7L292.5,53.7z"/>
			<path class="st0" d="M324,51.2c0,1.7,0.1,3.4,0.3,4.8h-3.6l-0.4-2.5h-0.1c-1.2,1.6-3.6,3-6.8,3c-4.5,0-6.8-2.8-6.8-5.7
				c0-4.8,4.7-7.4,13.3-7.4v-0.4c0-1.6-0.5-4.6-5-4.6c-2.1,0-4.2,0.5-5.8,1.5l-0.9-2.4c1.8-1,4.5-1.7,7.3-1.7c6.8,0,8.4,4.1,8.4,8.1
				V51.2z M320.1,45.8c-4.4-0.1-9.4,0.6-9.4,4.5c0,2.4,1.7,3.5,3.7,3.5c2.9,0,4.8-1.6,5.4-3.3c0.1-0.4,0.2-0.8,0.2-1.2V45.8z"/>
			<path class="st0" d="M349.5,26.8v24c0,1.8,0,3.8,0.2,5.1h-3.6l-0.2-3.5h-0.1c-1.2,2.2-3.9,3.9-7.5,3.9c-5.3,0-9.5-4.1-9.5-10.1
				c0-6.7,4.6-10.7,9.9-10.7c3.4,0,5.7,1.4,6.7,3h0.1V26.8H349.5z M345.5,44.2c0-0.5,0-1.1-0.2-1.6c-0.6-2.3-2.8-4.1-5.8-4.1
				c-4.2,0-6.6,3.3-6.6,7.6c0,4.1,2.2,7.4,6.5,7.4c2.7,0,5.2-1.6,5.9-4.3c0.1-0.5,0.2-1,0.2-1.6V44.2z"/>
			<path class="st0" d="M374.9,56.4c-5.9,0-10.6-3.9-10.6-10.2c0-6.7,4.9-10.6,11-10.6c6.3,0,10.6,4.1,10.6,10.2
				C385.9,53.2,380.2,56.4,374.9,56.4L374.9,56.4z M375,53.7c3.8,0,6.7-3.2,6.7-7.8c0-3.4-1.9-7.6-6.6-7.6c-4.7,0-6.8,3.9-6.8,7.7
				C368.3,50.4,371.1,53.7,375,53.7L375,53.7z"/>
			<path class="st0" d="M390.9,41.4c0-2.1,0-3.7-0.2-5.4h3.6l0.2,3.2h0.1c1.1-1.8,3.7-3.7,7.3-3.7c3.1,0,7.8,1.6,7.8,8.5v11.9h-4
				V44.5c0-3.2-1.3-5.9-5.1-5.9c-2.6,0-4.7,1.7-5.4,3.7c-0.2,0.5-0.3,1.1-0.3,1.7v12h-4V41.4z"/>
			<path class="st0" d="M430.8,31.3v4.8h5.8v2.8h-5.8v10.7c0,2.5,0.8,3.9,3,3.9c1.1,0,1.7-0.1,2.3-0.2l0.2,2.8
				c-0.8,0.2-2,0.5-3.6,0.5c-1.9,0-3.4-0.6-4.3-1.5c-1.1-1.1-1.6-2.9-1.6-5.2V38.8h-3.4v-2.8h3.4v-3.7L430.8,31.3z"/>
			<path class="st0" d="M441.1,26.8h4v12.4h0.1c0.6-1,1.6-2,2.9-2.5c1.2-0.7,2.6-1,4.1-1c3,0,7.7,1.6,7.7,8.5v11.8h-4V44.5
				c0-3.2-1.3-5.9-5.1-5.9c-2.6,0-4.6,1.6-5.4,3.6c-0.2,0.5-0.3,1-0.3,1.7v12h-4V26.8z"/>
			<path class="st0" d="M468.7,46.6c0.1,4.9,3.5,6.9,7.5,6.9c2.9,0,4.7-0.5,6.1-1l0.7,2.5c-1.4,0.6-3.9,1.3-7.4,1.3
				c-6.8,0-10.9-4.1-10.9-10c0-6,4-10.8,10.4-10.8c7.2,0,9.1,5.7,9.1,9.4c0,0.7,0,1.3-0.1,1.7L468.7,46.6z M480.4,44
				c0-2.3-1.1-5.9-5.5-5.9c-4.1,0-5.8,3.4-6.2,5.9H480.4z"/>
		</g>
	</g>
</g>
<g>
</g>
<g>
</g>
<g>
</g>
<g>
</g>
<g>
</g>
</svg>
