<?xml version="1.0" encoding="utf-8"?>
<!-- Generator: Adobe Illustrator 15.1.0, SVG Export Plug-In . SVG Version: 6.00 Build 0)  -->
<!DOCTYPE svg PUBLIC "-//W3C//DTD SVG 1.1//EN" "http://www.w3.org/Graphics/SVG/1.1/DTD/svg11.dtd">
<svg version="1.1" xmlns="http://www.w3.org/2000/svg" xmlns:xlink="http://www.w3.org/1999/xlink" x="0px" y="0px" width="1500px"
	 height="1500px" viewBox="0 0 1500 1500" enable-background="new 0 0 1500 1500" xml:space="preserve">
<g id="BG" display="none">
	<rect display="inline" stroke="#000000" stroke-miterlimit="10" width="1500" height="1500"/>
</g>
<g id="Portal_Logo">
	<path id="External_Ring" fill="#1E6C93" d="M1441.072,457.981c-37.946-89.712-45.46-360.249-45.46-360.249
		s-263.882-0.86-353.594-38.805C952.306,20.982,853.672,0,750.138,0C646.604,0,547.97,20.982,458.257,58.928
		c-89.712,37.945-347.268,59.521-347.268,59.521S97.148,368.27,59.204,457.981C21.259,547.695,0.275,646.328,0.275,749.863
		c0,103.534,20.984,202.167,58.929,291.879c37.944,89.713,47.516,358.159,47.516,358.159s261.825,2.95,351.537,40.896
		c89.713,37.944,188.347,58.928,291.881,58.928c103.534,0,202.168-20.983,291.881-58.928
		c89.712-37.945,351.804-47.238,351.804-47.238s9.304-262.104,47.25-351.816C1479.017,952.03,1500,853.396,1500,749.863
		C1500,646.328,1479.017,547.695,1441.072,457.981 M750.084,1359.852c-337.291,0-610.72-273.43-610.72-610.721
		s273.429-610.719,610.72-610.719c337.292,0,610.721,273.428,610.721,610.719S1087.376,1359.852,750.084,1359.852"/>
	<path id="White_Ring" fill="#FFFFFF" d="M1395.97,748.728c0,359.293-291.265,650.558-650.558,650.558
		c-359.294,0-650.559-291.265-650.559-650.558c0-359.293,291.265-650.558,650.559-650.558
		C1104.705,98.17,1395.97,389.435,1395.97,748.728"/>
	<g id="Needle">
		<polygon fill="#1E6C93" points="838.055,841.498 1043.886,450.933 745.689,749.13 		"/>
		<polygon fill="#1E6C93" points="838.055,841.498 447.491,1047.328 745.688,749.131 		"/>
		<polygon fill="#1E6C93" points="653.322,656.764 1043.886,450.934 745.689,749.131 		"/>
		<polygon fill="#1E6C93" points="653.322,656.764 447.491,1047.328 745.688,749.131 		"/>
	</g>
	<g id="Compass_Pins">
		<rect x="735.931" y="128.389" fill="#1E6C93" width="27.755" height="83.267"/>
		
			<rect x="395.782" y="238.93" transform="matrix(0.809 -0.5878 0.5878 0.809 -86.6724 294.3855)" fill="#1E6C93" width="27.756" height="83.266"/>
		
			<rect x="185.57" y="528.292" transform="matrix(0.309 -0.951 0.951 0.309 -404.217 583.4761)" fill="#1E6C93" width="27.755" height="83.267"/>
		
			<rect x="185.586" y="885.95" transform="matrix(-0.309 -0.9511 0.9511 -0.309 -621.0811 1403.9276)" fill="#1E6C93" width="27.756" height="83.267"/>
		
			<rect x="395.827" y="1175.293" transform="matrix(-0.809 -0.5878 0.5878 -0.809 25.89 2442.2637)" fill="#1E6C93" width="27.756" height="83.265"/>
		<rect x="735.987" y="1285.8" fill="#1E6C93" width="27.755" height="83.268"/>
		
			<rect x="1076.135" y="1175.26" transform="matrix(-0.809 0.5878 -0.5878 -0.809 2687.1294 1560.6602)" fill="#1E6C93" width="27.755" height="83.267"/>
		
			<rect x="1286.348" y="885.898" transform="matrix(-0.309 0.9511 -0.9511 -0.309 2584.1143 -22.4865)" fill="#1E6C93" width="27.757" height="83.268"/>
		
			<rect x="1286.331" y="528.239" transform="matrix(0.309 0.9511 -0.9511 0.309 1440.3904 -842.8018)" fill="#1E6C93" width="27.755" height="83.266"/>
		
			<rect x="1076.09" y="238.896" transform="matrix(0.809 0.5878 -0.5878 0.809 373.0839 -587.1129)" fill="#1E6C93" width="27.755" height="83.267"/>
	</g>
</g>
</svg>
