<?xml version="1.0" encoding="utf-8"?>
<!-- Generator: Adobe Illustrator 15.1.0, SVG Export Plug-In . SVG Version: 6.00 Build 0)  -->
<!DOCTYPE svg PUBLIC "-//W3C//DTD SVG 1.1//EN" "http://www.w3.org/Graphics/SVG/1.1/DTD/svg11.dtd">
<svg version="1.1" id="Layer_1" xmlns="http://www.w3.org/2000/svg" xmlns:xlink="http://www.w3.org/1999/xlink" x="0px" y="0px"
	 width="1500px" height="1500px" viewBox="0 0 1500 1500" enable-background="new 0 0 1500 1500" xml:space="preserve">
<path id="External_Ring" fill="#B41A1F" d="M1441.072,457.981c-37.946-89.712-45.46-360.25-45.46-360.25
	s-263.882-0.86-353.595-38.805C952.306,20.982,853.672,0,750.138,0S547.97,20.982,458.257,58.928
	c-89.712,37.945-347.268,59.521-347.268,59.521S97.148,368.27,59.204,457.981C21.259,547.695,0.275,646.328,0.275,749.863
	c0,103.533,20.984,202.167,58.929,291.879c37.944,89.713,47.516,358.158,47.516,358.158s261.825,2.95,351.537,40.896
	c89.713,37.944,188.347,58.928,291.881,58.928s202.168-20.982,291.882-58.928c89.712-37.945,351.804-47.238,351.804-47.238
	s9.304-262.104,47.25-351.815C1479.017,952.03,1500,853.396,1500,749.863C1500,646.328,1479.017,547.695,1441.072,457.981
	 M750.084,1359.852c-337.291,0-610.72-273.43-610.72-610.721s273.429-610.719,610.72-610.719
	c337.292,0,610.721,273.428,610.721,610.719S1087.376,1359.852,750.084,1359.852"/>
<path id="White_Ring" fill="#FFFFFF" d="M1395.97,748.729c0,359.293-291.265,650.558-650.558,650.558
	c-359.294,0-650.559-291.265-650.559-650.558c0-359.293,291.265-650.559,650.559-650.559
	C1104.705,98.17,1395.97,389.435,1395.97,748.729"/>
<g id="Needle">
	<polygon fill="#B41A1F" points="838.055,841.498 1043.886,450.933 745.689,749.13 	"/>
	<polygon fill="#B41A1F" points="838.055,841.498 447.491,1047.328 745.688,749.131 	"/>
	<polygon fill="#B41A1F" points="653.322,656.764 1043.886,450.934 745.689,749.131 	"/>
	<polygon fill="#B41A1F" points="653.322,656.764 447.491,1047.328 745.688,749.131 	"/>
</g>
<g id="Compass_Pins">
	<rect x="735.931" y="128.389" fill="#B41A1F" width="27.755" height="83.267"/>
	
		<rect x="395.779" y="238.93" transform="matrix(-0.809 0.5878 -0.5878 -0.809 905.9874 266.7469)" fill="#B41A1F" width="27.756" height="83.265"/>
	
		<rect x="185.535" y="528.278" transform="matrix(-0.309 0.9511 -0.9511 -0.309 803.0483 556.3701)" fill="#B41A1F" width="27.753" height="83.262"/>
	
		<rect x="185.631" y="885.959" transform="matrix(0.309 0.9511 -0.9511 0.309 1020.0635 451.2274)" fill="#B41A1F" width="27.757" height="83.27"/>
	
		<rect x="395.87" y="1175.314" transform="matrix(0.809 0.5878 -0.5878 0.809 793.5791 -8.4209)" fill="#B41A1F" width="27.755" height="83.265"/>
	<rect x="735.987" y="1285.8" fill="#B41A1F" width="27.755" height="83.269"/>
	
		<rect x="1076.142" y="1175.269" transform="matrix(0.809 -0.5878 0.5878 0.809 -507.108 873.1327)" fill="#B41A1F" width="27.755" height="83.267"/>
	
		<rect x="1286.29" y="885.916" transform="matrix(0.309 -0.9511 0.9511 0.309 16.2896 1877.5229)" fill="#B41A1F" width="27.758" height="83.271"/>
	
		<rect x="1286.272" y="528.282" transform="matrix(-0.309 -0.9511 0.9511 -0.309 1159.8523 1982.5428)" fill="#B41A1F" width="27.756" height="83.269"/>
	
		<rect x="1076.095" y="238.885" transform="matrix(-0.809 -0.5878 0.5878 -0.809 1806.8787 1148.1443)" fill="#B41A1F" width="27.755" height="83.267"/>
</g>
</svg>
