<?xml version="1.0" encoding="utf-8"?>
<!-- Generator: Adobe Illustrator 15.1.0, SVG Export Plug-In . SVG Version: 6.00 Build 0)  -->
<!DOCTYPE svg PUBLIC "-//W3C//DTD SVG 1.1//EN" "http://www.w3.org/Graphics/SVG/1.1/DTD/svg11.dtd">
<svg version="1.1" id="Layer_1" xmlns="http://www.w3.org/2000/svg" xmlns:xlink="http://www.w3.org/1999/xlink" x="0px" y="0px"
	 width="612px" height="135.854px" viewBox="0 0 612 135.854" enable-background="new 0 0 612 135.854" xml:space="preserve">
<title>Asset 5</title>
<g id="Layer_2">
	<g id="Layer_1-2">
		<path d="M197.386,105.077h-14.983v-8.492c-2.67,3.773-5.789,6.582-9.356,8.423s-7.657,2.761-12.271,2.761
			c-9.25,0-16.533-3.164-21.851-9.492c-5.317-6.328-7.976-14.993-7.976-25.996c0-10.446,2.715-18.882,8.146-25.304
			c5.431-6.421,12.521-9.635,21.268-9.641c5.338,0,9.906,1.116,13.704,3.348c3.771,2.198,6.701,5.591,8.327,9.642V39.623h14.983
			L197.386,105.077z M182.814,72.139c0-6.767-1.576-12.037-4.729-15.812c-3.152-3.774-7.559-5.661-13.221-5.658
			c-5.662,0-10.116,1.943-13.362,5.833c-3.246,3.889-4.868,9.286-4.865,16.191c0,6.951,1.565,12.313,4.694,16.088
			c3.129,3.775,7.548,5.661,13.256,5.658c5.388,0,9.77-2.046,13.147-6.136C181.112,84.216,182.806,78.827,182.814,72.139z"/>
		<path d="M229.351,135.854h-15.396l17.968-36.457l-24.042-59.774h16.57l12.012,33.901c0.692,2.068,1.303,4.173,1.832,6.314
			c0.526,2.144,0.955,4.315,1.275,6.524c0.599-2.299,2.026-5.951,4.281-10.956l0.346-0.828l16.158-34.957h16.215L229.351,135.854z"
			/>
		<path d="M284.726,135.854V39.623h14.983v10.702c1.658-4.04,4.609-7.416,8.393-9.598c3.84-2.258,8.431-3.386,13.773-3.383
			c8.7,0,15.755,3.214,21.162,9.641c5.408,6.429,8.112,14.862,8.112,25.305c0,11-2.659,19.664-7.978,25.995
			c-5.315,6.331-12.601,9.495-21.85,9.492c-4.604,0-8.695-0.92-12.271-2.761c-3.576-1.841-6.691-4.651-9.344-8.432v39.271
			L284.726,135.854L284.726,135.854z M299.227,72.139c0,6.766,1.691,12.171,5.075,16.214c3.383,4.044,7.837,6.068,13.362,6.074
			c5.661,0,10.044-1.886,13.146-5.657c3.104-3.772,4.655-9.135,4.658-16.088c0-6.907-1.621-12.304-4.864-16.193
			c-3.242-3.889-7.695-5.833-13.36-5.833c-5.662,0-10.081,1.887-13.257,5.658C300.811,60.087,299.224,65.361,299.227,72.139z"/>
		<path d="M444.738,9.778c-0.024-2.484,0.988-4.867,2.797-6.573c1.749-1.795,4.158-2.794,6.665-2.766
			c5.021-0.127,9.193,3.839,9.321,8.86c0.004,0.154,0.004,0.308,0,0.461c0.061,2.518-0.913,4.951-2.695,6.731
			c-1.731,1.793-4.134,2.78-6.626,2.726c-2.513,0.029-4.926-0.983-6.665-2.796C445.728,14.686,444.716,12.284,444.738,9.778z
			 M446.641,105.077V39.623h14.979v65.454H446.641z"/>
		<path d="M483.027,105.077V39.623h14.085v10.702c2.994-4.509,6.515-7.8,10.562-9.874c4.046-2.074,8.973-3.11,14.777-3.107
			c4.876,0,9.03,0.771,12.463,2.314c3.312,1.434,6.118,3.824,8.06,6.866c1.204,1.927,2.048,4.057,2.489,6.284
			c0.502,2.394,0.755,6.581,0.758,12.564v39.703h-15.119V71.432c0-8.606-1.047-14.326-3.142-17.157s-5.813-4.247-11.153-4.247
			c-3.224-0.058-6.42,0.604-9.355,1.934c-2.616,1.185-4.853,3.074-6.455,5.456c-1.204,1.818-1.994,3.881-2.314,6.039
			c-0.438,2.462-0.654,6.387-0.651,11.771v29.831L483.027,105.077z"/>
		<path d="M569.68,105.077V52.738h-11.465V39.623h11.465V14.836h14.983v24.787h18.134L612,46.095l-9.203,6.645h-18.134v52.338
			L569.68,105.077L569.68,105.077z"/>
		<path d="M433.327,59.399c-1.924-4.545-2.301-18.249-2.301-18.249s-13.366-0.043-17.911-1.963c-9.452-3.979-20.11-3.979-29.563,0
			c-4.545,1.919-17.591,3.016-17.591,3.016s-0.701,12.651-2.63,17.196c-3.979,9.453-3.979,20.111,0,29.563
			c1.92,4.545,2.406,18.139,2.406,18.139s13.261,0.149,17.806,2.073c9.452,3.979,20.11,3.979,29.563,0
			c4.545-1.924,17.818-2.395,17.818-2.395s0.469-13.272,2.394-17.817c3.979-9.452,3.979-20.11,0-29.563H433.327z M398.33,100.252
			c-14.418,0-26.106-11.688-26.106-26.105s11.688-26.105,26.106-26.105c14.417,0,26.104,11.688,26.104,26.105
			S412.747,100.252,398.33,100.252L398.33,100.252z"/>
		<polygon points="403.216,79.028 414.093,58.383 398.33,74.146 		"/>
		<polygon points="403.216,79.028 382.566,89.909 398.33,74.146 		"/>
		<polygon points="393.447,69.264 414.093,58.383 398.33,74.146 		"/>
		<polygon points="393.447,69.264 382.566,89.909 398.33,74.146 		"/>
		<path d="M0,4.007h16.215l2.388,6.376l2.393,6.376l2.388,6.376l2.388,6.376l2.393,6.376l2.388,6.376l2.401,6.381l2.389,6.376
			c0.158,0.438,0.307,0.837,0.438,1.24c0.132,0.403,0.298,0.812,0.438,1.206c0.14,0.394,0.285,0.78,0.438,1.161l0.403,1.126
			c0.131,0.368,0.259,0.727,0.381,1.082c0.122,0.354,0.25,0.706,0.368,1.047l0.346,1.008c0.109,0.329,0.219,0.648,0.329,0.968
			l0.315,0.942l0.302,0.925c0.101,0.308,0.197,0.609,0.294,0.911c0.096,0.303,0.193,0.601,0.285,0.876
			c0.092,0.276,0.188,0.588,0.276,0.877c0.087,0.289,0.18,0.578,0.267,0.876l0.254,0.851c0.087,0.284,0.167,0.562,0.25,0.837
			l0.605-1.993c0.206-0.666,0.407-1.314,0.613-1.989s0.412-1.314,0.623-1.972c0.21-0.658,0.438-1.315,0.626-1.963l0.627-1.946
			c0.214-0.648,0.438-1.315,0.64-1.941s0.438-1.293,0.648-1.933s0.438-1.284,0.653-1.924c0.026-0.079,0.057-0.158,0.083-0.229
			c0.026-0.069,0.048-0.148,0.075-0.215c0.026-0.064,0.048-0.131,0.07-0.191l0.066-0.176c0.016-0.052,0.035-0.104,0.057-0.153
			c0-0.048,0.035-0.093,0.048-0.137c0.013-0.044,0.031-0.078,0.044-0.113l0.04-0.098l2.537-6.749l2.538-6.744l2.542-6.744
			l2.533-6.749l2.538-6.749L61.47,13.5l2.538-6.749l2.537-6.753l2.695,6.875l2.678,6.88l2.673,6.876l2.678,6.876l2.673,6.876
			l2.673,6.88l2.678,6.876l2.673,6.876c0.127,0.337,0.254,0.67,0.377,1.003c0.123,0.333,0.25,0.666,0.373,0.999
			s0.246,0.67,0.364,1.003c0.118,0.333,0.246,0.667,0.364,1l0.355,1.003l0.351,0.999l0.342,1l0.342,1.003
			c0.109,0.333,0.224,0.666,0.333,0.999l0.329,1.005c0.11,0.337,0.215,0.675,0.324,1.008l0.316,1.008
			c0.105,0.337,0.21,0.675,0.311,1.013c0.101,0.337,0.206,0.675,0.307,1.012c0.101,0.338,0.202,0.675,0.302,1.018
			c0.101,0.342,0.197,0.675,0.298,1.017c0.057-0.258,0.118-0.521,0.18-0.788c0.061-0.268,0.127-0.535,0.193-0.807
			c0.065-0.271,0.14-0.543,0.21-0.824c0.07-0.28,0.149-0.561,0.228-0.846s0.158-0.569,0.241-0.876s0.167-0.583,0.254-0.877
			c0.088-0.293,0.18-0.601,0.272-0.902c0.092-0.303,0.188-0.614,0.285-0.925c0.097-0.311,0.202-0.627,0.307-0.951
			s0.21-0.657,0.325-0.999c0.114-0.342,0.228-0.684,0.346-1.039c0.118-0.354,0.241-0.714,0.368-1.083l0.39-1.126
			c0.136-0.381,0.272-0.771,0.412-1.17c0.14-0.398,0.289-0.802,0.438-1.214l0.438-1.253l2.375-6.429l2.371-6.42l2.375-6.43
			l2.371-6.429l2.375-6.429l2.371-6.43l2.375-6.425l2.371-6.429h277.188l7.844,5.57l-7.844,6.17L129.18,15.807l-15.167,40.69
			l-4.891,13.125l-4.891,13.146l-4.895,13.125l-4.891,13.125l-2.884-7.209l-2.879-7.204l-2.883-7.205l-2.893-7.209l-2.879-7.204
			l-2.897-7.223l-2.884-7.205l-2.879-7.204c-0.127-0.324-0.254-0.645-0.377-0.965l-0.368-0.95c-0.118-0.315-0.241-0.632-0.355-0.942
			c-0.114-0.313-0.237-0.623-0.351-0.934c-0.114-0.312-0.228-0.618-0.342-0.921c-0.114-0.302-0.224-0.612-0.333-0.915l-0.324-0.902
			c-0.105-0.298-0.21-0.596-0.311-0.877c-0.101-0.28-0.206-0.591-0.307-0.876s-0.202-0.583-0.298-0.876s-0.197-0.574-0.289-0.876
			c-0.092-0.303-0.188-0.565-0.281-0.847c-0.092-0.279-0.184-0.561-0.271-0.837c-0.088-0.275-0.18-0.552-0.263-0.823
			c-0.083-0.272-0.171-0.544-0.254-0.812c-0.083-0.267-0.167-0.535-0.246-0.802c-0.101,0.342-0.197,0.679-0.293,1.012
			c-0.097,0.333-0.197,0.666-0.294,0.995c-0.096,0.329-0.197,0.653-0.293,0.978c-0.096,0.324-0.197,0.645-0.293,0.959
			c-0.097,0.316-0.197,0.637-0.294,0.947c-0.096,0.312-0.197,0.623-0.293,0.929c-0.096,0.308-0.197,0.613-0.293,0.912
			c-0.097,0.298-0.197,0.601-0.294,0.876c-0.096,0.276-0.197,0.592-0.293,0.876c-0.096,0.285-0.197,0.583-0.298,0.876l-0.298,0.876
			l-0.303,0.876l-0.302,0.842c-0.101,0.279-0.202,0.561-0.307,0.837c-0.105,0.275-0.202,0.552-0.307,0.824
			c-0.105,0.271-0.206,0.548-0.307,0.819l-2.831,7.169l-2.831,7.169l-2.831,7.169l-2.831,7.174l-2.831,7.17l-2.813,7.165
			l-2.831,7.171l-2.831,7.174L34.128,95.87l-4.873-13.125l-4.878-13.146l-4.873-13.104l-4.877-13.116L9.754,30.232L4.876,17.12
			L0,4.007z"/>
	</g>
</g>
</svg>
