<?xml version="1.0" encoding="utf-8"?>
<!-- Generator: Adobe Illustrator 23.0.1, SVG Export Plug-In . SVG Version: 6.00 Build 0)  -->
<svg version="1.1" id="Layer_1" xmlns="http://www.w3.org/2000/svg" xmlns:xlink="http://www.w3.org/1999/xlink" x="0px" y="0px"
	 viewBox="0 0 90 81.4" style="enable-background:new 0 0 90 81.4;" xml:space="preserve">
<style type="text/css">
	.st0{fill:#FFFFFF;}
</style>
<g>
	<path class="st0" d="M62.1,35.5H65v27.1H31.6V35.5h8.2h16.9 M41.9,43.9l-1.5,2.5L45,49l-4.6,2.6l1.5,2.5l4.5-2.6v5.3h2.9v-5.3
		l4.6,2.6l1.5-2.5L50.8,49l4.6-2.6l-1.5-2.5l-4.5,2.6v-5.3h-2.9v5.3L41.9,43.9z"/>
	<path class="st0" d="M62.1,40.8h-5.3V32c0-4.7-3.8-8.4-8.5-8.4s-8.5,3.8-8.5,8.4v8.8h-5.3V32c0-7.6,6.2-13.8,13.8-13.8
		S62.1,24.4,62.1,32V40.8z"/>
</g>
<path class="st0" d="M44.6,2l0.3,2.9c11.1-1.1,21.8,2.9,29.4,11c6.5,6.9,10,16,9.7,25.5s-4.2,18.4-11.2,24.9
	c-6.9,6.5-16,10-25.5,9.7s-18.4-4.2-24.9-11.2c-6.5-6.9-10-16-9.7-25.5c0.2-8.6,3.5-16.6,9.2-22.8l4.4,16.6l2.8-0.7l-5.5-20.6
	L3.1,17.3l0.7,2.8l14.5-3.8c-5.2,6.5-8.2,14.5-8.5,23c-0.3,10.3,3.5,20.1,10.5,27.5c7.1,7.5,16.6,11.8,26.9,12.1
	c10.3,0.3,20.1-3.4,27.6-10.5s11.8-16.6,12.1-26.9l0,0c0.3-10.3-3.4-20.1-10.5-27.6C68.2,5.2,56.6,0.9,44.6,2z"/>
</svg>
